<svg width="25" height="25" viewBox="0 0 25 25" fill="none" xmlns="http://www.w3.org/2000/svg">
<rect x="0.501099" y="0.501099" width="24.4989" height="24.4989" rx="8" fill="#CBFB45"/>
<g clip-path="url(#clip0_123_6)">
<path d="M13.8189 19.4203C12.9196 19.3417 11.9948 19.4337 11.1207 19.2414C7.96609 18.549 5.8428 15.7207 5.97295 12.4992C6.09996 9.38267 8.58735 6.65739 11.7015 6.34519C13.0344 6.2119 14.3878 6.27953 15.7322 6.26183C16.0129 6.25829 16.1628 6.40575 16.1596 6.69711C16.1561 6.99909 16.1506 7.30146 16.1596 7.60147C16.173 7.97816 15.9744 8.11617 15.6268 8.11538C14.6242 8.11381 13.6216 8.11381 12.6192 8.11538C10.1896 8.11931 8.08995 9.96736 7.84026 12.3203C7.57761 14.7943 9.23652 17.078 11.7164 17.4972C12.7077 17.6654 13.7406 17.5888 14.7551 17.6187C15.0846 17.6281 15.4145 17.623 15.744 17.6214C16.0129 17.6214 16.1549 17.7464 16.1557 18.0189C16.1557 18.3484 16.1557 18.6779 16.1557 19.0078C16.1557 19.3043 15.9984 19.4219 15.7141 19.4203C15.0822 19.4164 14.4504 19.4203 13.8189 19.4203Z" fill="#1E1E1E"/>
<path d="M16.1894 17.1121C16.1894 16.9085 16.1721 16.7032 16.1933 16.5015C16.2303 16.1476 16.1021 16.019 15.7329 16.0269C14.7318 16.0493 13.7299 16.0371 12.728 16.034C10.9004 16.0281 9.55687 14.7518 9.45031 12.9242C9.35869 11.3514 10.6763 9.78877 12.2554 9.71957C13.7496 9.6543 15.2485 9.64093 16.7399 9.71485C18.9949 9.82455 20.351 12.4857 19.1529 14.438C18.4452 15.5885 17.2506 16.2605 16.3066 17.1813L16.1894 17.1121ZM14.4892 14.2567C15.1203 14.2567 15.7517 14.2606 16.3828 14.2567C17.1964 14.2504 17.8113 13.6669 17.8377 12.8844C17.8609 12.1496 17.2546 11.4504 16.4953 11.4327C15.1785 11.4021 13.8608 11.3997 12.5436 11.4327C11.7804 11.4528 11.1906 12.1507 11.2158 12.8955C11.2417 13.661 11.8496 14.2465 12.638 14.2548C13.2541 14.263 13.8715 14.2567 14.4892 14.2567Z" fill="#1E1E1E"/>
<circle cx="12.7325" cy="12.8278" r="0.444451" fill="#1E1E1E"/>
<circle cx="16.2881" cy="12.8278" r="0.444451" fill="#1E1E1E"/>
</g>
<defs>
<clipPath id="clip0_123_6">
<rect width="13.6315" height="13.2348" fill="white" transform="translate(5.96704 6.25983)"/>
</clipPath>
</defs>
</svg>
