<svg width="92" height="29" viewBox="0 0 92 29" fill="none" xmlns="http://www.w3.org/2000/svg">
<g clip-path="url(#clip0_121_157)">
<path d="M15.5453 25.0267C14.1086 24.901 12.631 25.048 11.2345 24.7408C6.19424 23.6345 2.80185 19.1157 3.00979 13.9687C3.2127 8.98943 7.18683 4.63523 12.1623 4.13642C14.292 3.92346 16.4544 4.03151 18.6022 4.00324C19.0508 3.99759 19.2901 4.23317 19.2851 4.69868C19.2795 5.18116 19.2707 5.66426 19.2851 6.14359C19.3065 6.74543 18.9892 6.96593 18.4339 6.96467C16.8319 6.96216 15.2302 6.96216 13.6286 6.96467C9.74683 6.97096 6.39213 9.9236 5.99321 13.6829C5.57356 17.6356 8.22403 21.2843 12.1862 21.954C13.77 22.2229 15.4203 22.1004 17.0411 22.1482C17.5676 22.1632 18.0946 22.1551 18.6211 22.1526C19.0508 22.1526 19.2776 22.3523 19.2788 22.7877C19.2788 23.3141 19.2788 23.8406 19.2788 24.3677C19.2788 24.8413 19.0275 25.0292 18.5733 25.0267C17.5638 25.0204 16.5542 25.0267 15.5453 25.0267Z" fill="#1E1E1E"/>
<path d="M19.3324 21.3389C19.3324 21.0135 19.3047 20.6856 19.3387 20.3633C19.3977 19.7979 19.1929 19.5925 18.603 19.605C17.0036 19.6408 15.4029 19.6214 13.8022 19.6163C10.8822 19.6069 8.73555 17.5677 8.56531 14.6477C8.41893 12.1349 10.5241 9.63831 13.047 9.52774C15.4343 9.42346 17.8291 9.40209 20.2119 9.5202C23.8148 9.69547 25.9815 13.9473 24.0673 17.0664C22.9365 18.9046 21.028 19.9782 19.5196 21.4495L19.3324 21.3389ZM16.616 16.7768C17.6243 16.7768 18.6332 16.7831 19.6415 16.7768C20.9413 16.7667 21.9238 15.8345 21.9659 14.5843C22.003 13.4101 21.0342 12.2932 19.8211 12.2649C17.7172 12.2159 15.6121 12.2121 13.5075 12.2649C12.2881 12.2969 11.3458 13.412 11.386 14.6019C11.4275 15.825 12.3987 16.7605 13.6583 16.7736C14.6427 16.7868 15.629 16.7768 16.616 16.7768Z" fill="#1E1E1E"/>
<circle cx="13.8095" cy="14.4937" r="0.710103" fill="#1E1E1E"/>
<circle cx="19.4901" cy="14.4937" r="0.710103" fill="#1E1E1E"/>
</g>
<path d="M28.0895 8.95159H30.0307V20.8614H28.0895V8.95159ZM33.913 16.9876C33.913 16.202 34.091 15.4985 34.4471 14.8768C34.8087 14.2496 35.3089 13.7607 35.9475 13.4104C36.5917 13.0543 37.3235 12.8763 38.1429 12.8763C38.9624 12.8763 39.6942 13.0543 40.3384 13.4104C40.9826 13.7607 41.4828 14.2496 41.8388 14.8768C42.2005 15.4985 42.3813 16.202 42.3813 16.9876C42.3813 17.7618 42.2005 18.4625 41.8388 19.0898C41.4828 19.7171 40.9826 20.2087 40.3384 20.5648C39.6998 20.9151 38.968 21.0903 38.1429 21.0903C37.3235 21.0903 36.5917 20.9151 35.9475 20.5648C35.3089 20.2087 34.8087 19.7199 34.4471 19.0983C34.091 18.471 33.913 17.7674 33.913 16.9876ZM35.9051 16.9706C35.9051 17.6657 36.1142 18.2365 36.5323 18.6829C36.9505 19.1294 37.4874 19.3526 38.1429 19.3526C38.8154 19.3526 39.3608 19.1294 39.7789 18.6829C40.1971 18.2365 40.4062 17.6657 40.4062 16.9706C40.4062 16.2755 40.1971 15.7076 39.7789 15.2668C39.3608 14.8203 38.8154 14.5971 38.1429 14.5971C37.4817 14.5971 36.9421 14.8203 36.5239 15.2668C36.1113 15.7076 35.9051 16.2755 35.9051 16.9706ZM50.4512 12.8763C51.3497 12.8763 52.059 13.1617 52.5789 13.7325C53.1044 14.2976 53.3672 15.0775 53.3672 16.0721V20.8614H51.4175V16.5213C51.4175 15.2611 50.9033 14.631 49.8748 14.631C49.321 14.631 48.8915 14.7921 48.5863 15.1142C48.2868 15.4363 48.137 15.8715 48.137 16.4196V20.8614H46.2128V13.1222H47.8234L47.9675 14.0546C48.2105 13.6986 48.5552 13.4132 49.0017 13.1984C49.4481 12.9837 49.9313 12.8763 50.4512 12.8763ZM64.9465 18.4456C64.7769 19.2367 64.3446 19.8753 63.6495 20.3613C62.9544 20.8473 62.1265 21.0903 61.1658 21.0903C60.369 21.0903 59.6654 20.918 59.0551 20.5732C58.4504 20.2229 57.9786 19.7369 57.6395 19.1152C57.3061 18.4879 57.1394 17.7674 57.1394 16.9537C57.1394 16.1342 57.3089 15.4194 57.648 14.809C57.9927 14.1931 58.4646 13.7184 59.0636 13.3849C59.6683 13.0459 60.3521 12.8763 61.115 12.8763C61.8666 12.8763 62.5306 13.0374 63.107 13.3595C63.6891 13.676 64.1383 14.1111 64.4548 14.6649C64.7713 15.2187 64.9295 15.8545 64.9295 16.5722C64.9295 16.9565 64.9013 17.2758 64.8447 17.5301H59.0466C59.0692 18.1178 59.2727 18.5925 59.657 18.9542C60.0469 19.3102 60.5499 19.4882 61.1658 19.4882C61.6292 19.4882 62.0276 19.3978 62.3611 19.2169C62.7001 19.0305 62.9318 18.7733 63.0561 18.4456H64.9465ZM62.9544 16.2247C62.9431 15.6821 62.7623 15.2555 62.4119 14.9447C62.0672 14.6282 61.6179 14.47 61.0641 14.47C60.499 14.47 60.0328 14.631 59.6654 14.9531C59.2981 15.2696 59.1031 15.6934 59.0805 16.2247H62.9544ZM69.5833 13.1222L70.4564 15.4787C70.6994 16.1851 70.9311 16.8576 71.1515 17.4962C71.3719 18.1291 71.516 18.5614 71.5838 18.7931C71.6629 18.5614 71.8353 18.0754 72.1009 17.3351C72.3665 16.5948 72.5982 15.976 72.796 15.4787L73.7199 13.1222H75.7289L72.4993 20.8614H70.575L67.5065 13.1222H69.5833ZM78.3821 16.9876C78.3821 16.202 78.5602 15.4985 78.9162 14.8768C79.2779 14.2496 79.778 13.7607 80.4166 13.4104C81.0608 13.0543 81.7926 12.8763 82.612 12.8763C83.4315 12.8763 84.1633 13.0543 84.8075 13.4104C85.4518 13.7607 85.9519 14.2496 86.3079 14.8768C86.6696 15.4985 86.8504 16.202 86.8504 16.9876C86.8504 17.7618 86.6696 18.4625 86.3079 19.0898C85.9519 19.7171 85.4518 20.2087 84.8075 20.5648C84.1689 20.9151 83.4371 21.0903 82.612 21.0903C81.7926 21.0903 81.0608 20.9151 80.4166 20.5648C79.778 20.2087 79.2779 19.7199 78.9162 19.0983C78.5602 18.471 78.3821 17.7674 78.3821 16.9876ZM80.3742 16.9706C80.3742 17.6657 80.5833 18.2365 81.0015 18.6829C81.4196 19.1294 81.9565 19.3526 82.612 19.3526C83.2845 19.3526 83.8299 19.1294 84.2481 18.6829C84.6662 18.2365 84.8753 17.6657 84.8753 16.9706C84.8753 16.2755 84.6662 15.7076 84.2481 15.2668C83.8299 14.8203 83.2845 14.5971 82.612 14.5971C81.9509 14.5971 81.4112 14.8203 80.993 15.2668C80.5804 15.7076 80.3742 16.2755 80.3742 16.9706Z" fill="#1E1E1E"/>
<defs>
<clipPath id="clip0_121_157">
<rect width="21.7792" height="21.1453" fill="white" transform="translate(3 4)"/>
</clipPath>
</defs>
</svg>
